<?xml version="1.0" encoding="utf-8"?><!-- Uploaded to: SVG Repo, www.svgrepo.com, Generator: SVG Repo Mixer Tools -->
<svg width="287" height="42" viewBox="0 0 287 42" fill="none" xmlns="http://www.w3.org/2000/svg">
<path d="M96.3377 1.6084H94.8418V20.9898H96.3377V1.6084Z" fill="#838383"/>
<path d="M98.9295 0H97.4336V20.9965H98.9295V0Z" fill="#838383"/>
<path d="M101.522 3.56836H100.026V20.9965H101.522V3.56836Z" fill="#838383"/>
<path d="M104.114 6.43945H102.618V20.9893H104.114V6.43945Z" fill="#838383"/>
<path d="M106.699 8.52441H105.203V20.9898H106.699V8.52441Z" fill="#838383"/>
<path d="M109.291 5.41797H107.795V20.9894H109.291V5.41797Z" fill="#838383"/>
<path d="M111.883 8.73828H110.387V20.9897H111.883V8.73828Z" fill="#838383"/>
<path d="M114.475 6.46094H112.979V20.9901H114.475V6.46094Z" fill="#838383"/>
<path d="M117.06 1.6084H115.564V20.9898H117.06V1.6084Z" fill="#838383"/>
<path d="M119.652 0H118.156V20.9965H119.652V0Z" fill="#838383"/>
<path d="M122.244 3.56836H120.748V20.9965H122.244V3.56836Z" fill="#838383"/>
<path d="M124.836 6.46094H123.34V20.9901H124.836V6.46094Z" fill="#838383"/>
<path d="M127.428 1.6084H125.932V20.9898H127.428V1.6084Z" fill="#838383"/>
<path d="M130.013 0H128.517V20.9965H130.013V0Z" fill="#838383"/>
<path d="M132.605 3.56836H131.109V20.9965H132.605V3.56836Z" fill="#838383"/>
<path d="M135.197 6.43945H133.701V20.9893H135.197V6.43945Z" fill="#838383"/>
<path d="M137.789 8.52441H136.293V20.9898H137.789V8.52441Z" fill="#838383"/>
<path d="M140.381 5.41797H138.885V20.9894H140.381V5.41797Z" fill="#838383"/>
<path d="M142.966 6.62598H141.47V20.9895H142.966V6.62598Z" fill="#838383"/>
<path d="M145.558 7.79297H144.062V20.9969H145.558V7.79297Z" fill="#838383"/>
<path d="M148.15 4.77637H146.654V20.9966H148.15V4.77637Z" fill="#838383"/>
<path d="M150.742 9.45605H149.246V20.9966H150.742V9.45605Z" fill="#838383"/>
<path d="M153.327 1.6084H151.831V20.9898H153.327V1.6084Z" fill="#838383"/>
<path d="M155.919 0H154.423V20.9965H155.919V0Z" fill="#838383"/>
<path d="M158.511 3.56836H157.015V20.9965H158.511V3.56836Z" fill="#838383"/>
<path d="M161.103 6.43945H159.607V20.9893H161.103V6.43945Z" fill="#838383"/>
<path d="M163.695 8.52441H162.199V20.9898H163.695V8.52441Z" fill="#838383"/>
<path d="M166.28 5.41797H164.784V20.9894H166.28V5.41797Z" fill="#838383"/>
<path d="M168.872 6.62598H167.376V20.9895H168.872V6.62598Z" fill="#838383"/>
<path d="M223.241 6.46094H221.746V20.9901H223.241V6.46094Z" fill="#838383"/>
<path d="M225.833 1.6084H224.337V20.9898H225.833V1.6084Z" fill="#838383"/>
<path d="M228.426 0H226.93V20.9965H228.426V0Z" fill="#838383"/>
<path d="M231.017 3.56836H229.521V20.9965H231.017V3.56836Z" fill="#838383"/>
<path d="M233.609 6.43945H232.113V20.9893H233.609V6.43945Z" fill="#838383"/>
<path d="M236.195 8.52441H234.699V20.9898H236.195V8.52441Z" fill="#838383"/>
<path d="M238.786 5.41797H237.291V20.9894H238.786V5.41797Z" fill="#838383"/>
<path d="M241.378 6.62598H239.882V20.9895H241.378V6.62598Z" fill="#838383"/>
<path d="M243.971 7.79297H242.475V20.9969H243.971V7.79297Z" fill="#838383"/>
<path d="M197.37 10.4775H195.874V20.9965H197.37V10.4775Z" fill="#838383"/>
<path d="M199.962 4.77637H198.466V20.9966H199.962V4.77637Z" fill="#838383"/>
<path d="M202.547 8.50391H201.051V20.99H202.547V8.50391Z" fill="#838383"/>
<path d="M205.139 1.6084H203.643V20.9898H205.139V1.6084Z" fill="#838383"/>
<path d="M207.731 0H206.235V20.9965H207.731V0Z" fill="#838383"/>
<path d="M210.323 3.56836H208.827V20.9965H210.323V3.56836Z" fill="#838383"/>
<path d="M212.908 6.43945H211.412V20.9893H212.908V6.43945Z" fill="#838383"/>
<path d="M215.5 8.52441H214.004V20.9898H215.5V8.52441Z" fill="#838383"/>
<path d="M218.092 5.41797H216.596V20.9894H218.092V5.41797Z" fill="#838383"/>
<path d="M220.684 6.62598H219.188V20.9895H220.684V6.62598Z" fill="#838383"/>
<path d="M171.464 11.4648H169.968V20.9899H171.464V11.4648Z" fill="#838383"/>
<path d="M174.055 14.999H172.56V20.9971H174.055V14.999Z" fill="#838383"/>
<path d="M176.648 16.2686H175.152V20.5617H176.648V16.2686Z" fill="#838383"/>
<path d="M179.233 15.4404H177.737V20.9967H179.233V15.4404Z" fill="#838383"/>
<path d="M181.825 16.5586H180.329V20.7897H181.825V16.5586Z" fill="#838383"/>
<path d="M184.417 16.4072H182.921V20.9972H184.417V16.4072Z" fill="#838383"/>
<path d="M187.009 16.3447H185.513V20.9899H187.009V16.3447Z" fill="#838383"/>
<path d="M189.594 15.8271H188.098V20.99H189.594V15.8271Z" fill="#838383"/>
<path d="M192.186 15.0195H190.69V20.99H192.186V15.0195Z" fill="#838383"/>
<path d="M194.778 12.8311H193.282V20.9964H194.778V12.8311Z" fill="#838383"/>
<path d="M246.555 4.77637H245.06V20.9966H246.555V4.77637Z" fill="#838383"/>
<path d="M249.147 9.45605H247.651V20.9966H249.147V9.45605Z" fill="#838383"/>
<path d="M251.74 1.6084H250.244V20.9898H251.74V1.6084Z" fill="#838383"/>
<path d="M254.331 0H252.835V20.9965H254.331V0Z" fill="#838383"/>
<path d="M256.924 3.56836H255.428V20.9965H256.924V3.56836Z" fill="#838383"/>
<path d="M269.876 1.6084H268.38V20.9898H269.876V1.6084Z" fill="#838383"/>
<path d="M272.462 9.45605H270.966V20.9966H272.462V9.45605Z" fill="#838383"/>
<path d="M275.054 13.7217H273.558V21.0035H275.054V13.7217Z" fill="#838383"/>
<path d="M259.509 6.43945H258.013V20.9893H259.509V6.43945Z" fill="#838383"/>
<path d="M262.1 8.52441H260.604V20.9898H262.1V8.52441Z" fill="#838383"/>
<path d="M264.693 5.41797H263.197V20.9894H264.693V5.41797Z" fill="#838383"/>
<path d="M267.284 6.62598H265.789V20.9895H267.284V6.62598Z" fill="#838383"/>
<path d="M280.044 17.4141H278.548V20.9963H280.044V17.4141Z" fill="#838383"/>
<path d="M282.63 17.4141H281.134V20.9963H282.63V17.4141Z" fill="#838383"/>
<path d="M285.221 17.4561H283.726V20.9969H285.221V17.4561Z" fill="#838383"/>
<path d="M280.044 21.0039H278.548V24.5862H280.044V21.0039Z" fill="#838383"/>
<path d="M282.63 21.0039H281.134V24.5862H282.63V21.0039Z" fill="#838383"/>
<path d="M285.221 21.0039H283.726V24.5447H285.221V21.0039Z" fill="#838383"/>
<path d="M277.549 17.4141H276.053V20.9963H277.549V17.4141Z" fill="#838383"/>
<path d="M277.549 21.0039H276.053V24.5862H277.549V21.0039Z" fill="#838383"/>
<path d="M96.3377 21.0039H94.8418V40.3853H96.3377V21.0039Z" fill="#838383"/>
<path d="M98.9295 21.0039H97.4336V42.0005H98.9295V21.0039Z" fill="#838383"/>
<path d="M101.522 21.0039H100.026V38.432H101.522V21.0039Z" fill="#838383"/>
<path d="M104.114 21.0039H102.618V35.5538H104.114V21.0039Z" fill="#838383"/>
<path d="M106.699 21.0039H105.203V33.4693H106.699V21.0039Z" fill="#838383"/>
<path d="M109.291 21.0039H107.795V36.5753H109.291V21.0039Z" fill="#838383"/>
<path d="M111.883 21.0039H110.387V33.2553H111.883V21.0039Z" fill="#838383"/>
<path d="M114.475 21.0039H112.979V35.5331H114.475V21.0039Z" fill="#838383"/>
<path d="M117.06 21.0039H115.564V40.3853H117.06V21.0039Z" fill="#838383"/>
<path d="M119.652 21.0039H118.156V42.0005H119.652V21.0039Z" fill="#838383"/>
<path d="M122.244 21.0039H120.748V38.432H122.244V21.0039Z" fill="#838383"/>
<path d="M124.836 21.0039H123.34V35.5331H124.836V21.0039Z" fill="#838383"/>
<path d="M127.428 21.0039H125.932V40.3853H127.428V21.0039Z" fill="#838383"/>
<path d="M130.013 21.0039H128.517V42.0005H130.013V21.0039Z" fill="#838383"/>
<path d="M132.605 21.0039H131.109V38.432H132.605V21.0039Z" fill="#838383"/>
<path d="M135.197 21.0039H133.701V35.5538H135.197V21.0039Z" fill="#838383"/>
<path d="M137.789 21.0039H136.293V33.4693H137.789V21.0039Z" fill="#838383"/>
<path d="M140.381 21.0039H138.885V36.5753H140.381V21.0039Z" fill="#838383"/>
<path d="M142.966 21.0039H141.47V35.3674H142.966V21.0039Z" fill="#838383"/>
<path d="M145.558 21.0039H144.062V34.2009H145.558V21.0039Z" fill="#838383"/>
<path d="M148.15 21.0039H146.654V37.2241H148.15V21.0039Z" fill="#838383"/>
<path d="M150.742 21.0039H149.246V32.5444H150.742V21.0039Z" fill="#838383"/>
<path d="M153.327 21.0039H151.831V40.3853H153.327V21.0039Z" fill="#838383"/>
<path d="M155.919 21.0039H154.423V42.0005H155.919V21.0039Z" fill="#838383"/>
<path d="M158.511 21.0039H157.015V38.432H158.511V21.0039Z" fill="#838383"/>
<path d="M161.103 21.0039H159.607V35.5538H161.103V21.0039Z" fill="#838383"/>
<path d="M163.695 21.0039H162.199V33.4693H163.695V21.0039Z" fill="#838383"/>
<path d="M166.28 21.0039H164.784V36.5753H166.28V21.0039Z" fill="#838383"/>
<path d="M168.872 21.0039H167.376V35.3674H168.872V21.0039Z" fill="#838383"/>
<path d="M223.241 21.0039H221.746V35.5331H223.241V21.0039Z" fill="#838383"/>
<path d="M225.833 21.0039H224.337V40.3853H225.833V21.0039Z" fill="#838383"/>
<path d="M228.426 21.0039H226.93V42.0005H228.426V21.0039Z" fill="#838383"/>
<path d="M231.017 21.0039H229.521V38.432H231.017V21.0039Z" fill="#838383"/>
<path d="M233.609 21.0039H232.113V35.5538H233.609V21.0039Z" fill="#838383"/>
<path d="M236.195 21.0039H234.699V33.4693H236.195V21.0039Z" fill="#838383"/>
<path d="M238.786 21.0039H237.291V36.5753H238.786V21.0039Z" fill="#838383"/>
<path d="M241.378 21.0039H239.882V35.3674H241.378V21.0039Z" fill="#838383"/>
<path d="M243.971 21.0039H242.475V34.2009H243.971V21.0039Z" fill="#838383"/>
<path d="M197.37 21.0039H195.874V31.5229H197.37V21.0039Z" fill="#838383"/>
<path d="M199.962 21.0039H198.466V37.2241H199.962V21.0039Z" fill="#838383"/>
<path d="M202.547 21.0039H201.051V33.49H202.547V21.0039Z" fill="#838383"/>
<path d="M205.139 21.0039H203.643V40.3853H205.139V21.0039Z" fill="#838383"/>
<path d="M207.731 21.0039H206.235V42.0005H207.731V21.0039Z" fill="#838383"/>
<path d="M210.323 21.0039H208.827V38.432H210.323V21.0039Z" fill="#838383"/>
<path d="M212.908 21.0039H211.412V35.5538H212.908V21.0039Z" fill="#838383"/>
<path d="M215.5 21.0039H214.004V33.4693H215.5V21.0039Z" fill="#838383"/>
<path d="M218.092 21.0039H216.596V36.5753H218.092V21.0039Z" fill="#838383"/>
<path d="M220.684 21.0039H219.188V35.3674H220.684V21.0039Z" fill="#838383"/>
<path d="M171.464 21.0039H169.968V30.529H171.464V21.0039Z" fill="#838383"/>
<path d="M174.055 21.0039H172.56V27.0019H174.055V21.0039Z" fill="#838383"/>
<path d="M176.648 21.4385H175.152V25.7317H176.648V21.4385Z" fill="#838383"/>
<path d="M179.233 21.0039H177.737V26.5602H179.233V21.0039Z" fill="#838383"/>
<path d="M181.825 21.2109H180.329V25.442H181.825V21.2109Z" fill="#838383"/>
<path d="M184.417 21.0039H182.921V25.5939H184.417V21.0039Z" fill="#838383"/>
<path d="M187.009 21.0039H185.513V25.6491H187.009V21.0039Z" fill="#838383"/>
<path d="M189.594 21.0039H188.098V26.1668H189.594V21.0039Z" fill="#838383"/>
<path d="M192.186 21.0039H190.69V26.9812H192.186V21.0039Z" fill="#838383"/>
<path d="M194.778 21.0039H193.282V29.1692H194.778V21.0039Z" fill="#838383"/>
<path d="M246.555 21.0039H245.06V37.2241H246.555V21.0039Z" fill="#838383"/>
<path d="M249.147 21.0039H247.651V32.5444H249.147V21.0039Z" fill="#838383"/>
<path d="M251.74 21.0039H250.244V40.3853H251.74V21.0039Z" fill="#838383"/>
<path d="M254.331 21.0039H252.835V42.0005H254.331V21.0039Z" fill="#838383"/>
<path d="M256.924 21.0039H255.428V38.432H256.924V21.0039Z" fill="#838383"/>
<path d="M269.876 21.0039H268.38V40.3853H269.876V21.0039Z" fill="#838383"/>
<path d="M272.462 21.0039H270.966V32.5444H272.462V21.0039Z" fill="#838383"/>
<path d="M275.054 21.0039H273.558V28.2857H275.054V21.0039Z" fill="#838383"/>
<path d="M259.509 21.0039H258.013V35.5538H259.509V21.0039Z" fill="#838383"/>
<path d="M262.1 21.0039H260.604V33.4693H262.1V21.0039Z" fill="#838383"/>
<path d="M264.693 21.0039H263.197V36.5753H264.693V21.0039Z" fill="#838383"/>
<path d="M267.284 21.0039H265.789V35.3674H267.284V21.0039Z" fill="#838383"/>
<g style="mix-blend-mode:overlay">
<path d="M5.76318 21.8664C5.84542 21.3789 6.09912 20.937 6.47842 20.6206C6.85771 20.3041 7.33757 20.1339 7.83125 20.1408H208.572C209.066 20.1339 209.546 20.3041 209.925 20.6206C210.304 20.937 210.558 21.3789 210.64 21.8664H5.76318Z" fill="white"/>
</g>
<path d="M1.03418 20.9961H285.966" stroke="#D8D9DA" stroke-width="3" stroke-miterlimit="10" stroke-linecap="round"/>
<path d="M1.03418 20.9961H90.7402H1.03418Z" fill="#21A59A"/>
<path d="M1.03418 20.9961H90.7402" stroke="#FAB40A" stroke-width="3" stroke-miterlimit="10" stroke-linecap="round"/>
<g opacity="0.5">
<path d="M21.2117 15.9307H19.7158V20.99H21.2117V15.9307Z" fill="#FAB40A"/>
<path d="M23.8035 15.9307H22.3076V20.99H23.8035V15.9307Z" fill="#FAB40A"/>
<path d="M26.3958 15.9922H24.8999V20.9963H26.3958V15.9922Z" fill="#FAB40A"/>
<path d="M13.4427 17.4141H11.9468V20.9963H13.4427V17.4141Z" fill="#FAB40A"/>
<path d="M16.0345 17.4141H14.5386V20.9963H16.0345V17.4141Z" fill="#FAB40A"/>
<path d="M18.6268 17.4561H17.1309V20.9969H18.6268V17.4561Z" fill="#FAB40A"/>
<path d="M28.9876 14.4531H27.4917V20.9964H28.9876V14.4531Z" fill="#FAB40A"/>
<path d="M31.5799 12.3408H30.084V20.9962H31.5799V12.3408Z" fill="#FAB40A"/>
<path d="M34.1649 11.2158H32.6689V20.9963H34.1649V11.2158Z" fill="#FAB40A"/>
<path d="M36.7566 7.79297H35.2607V20.9969H36.7566V7.79297Z" fill="#FAB40A"/>
<path d="M39.3489 4.77637H37.853V20.9966H39.3489V4.77637Z" fill="#FAB40A"/>
<path d="M41.9407 9.45605H40.4448V20.9966H41.9407V9.45605Z" fill="#FAB40A"/>
<path d="M44.5257 1.6084H43.0298V20.9898H44.5257V1.6084Z" fill="#FAB40A"/>
<path d="M47.118 0H45.6221V20.9965H47.118V0Z" fill="#FAB40A"/>
<path d="M49.7098 3.56836H48.2139V20.9965H49.7098V3.56836Z" fill="#FAB40A"/>
<path d="M52.3016 6.43945H50.8057V20.9893H52.3016V6.43945Z" fill="#FAB40A"/>
<path d="M54.8939 8.52441H53.3979V20.9898H54.8939V8.52441Z" fill="#FAB40A"/>
<path d="M57.4788 5.41797H55.9829V20.9894H57.4788V5.41797Z" fill="#FAB40A"/>
<path d="M60.0706 6.62598H58.5747V20.9895H60.0706V6.62598Z" fill="#FAB40A"/>
<path d="M88.5687 5.50781H87.0728V20.9964H88.5687V5.50781Z" fill="#FAB40A"/>
<path d="M91.1609 2.48438H89.665V20.9892H91.1609V2.48438Z" fill="#FAB40A"/>
<path d="M93.7459 6.46094H92.25V20.9901H93.7459V6.46094Z" fill="#FAB40A"/>
<path d="M62.6629 10.4502H61.167V20.9899H62.6629V10.4502Z" fill="#FAB40A"/>
<path d="M65.2547 8.04102H63.7588V20.9965H65.2547V8.04102Z" fill="#FAB40A"/>
<path d="M67.847 11.7754H66.3511V20.9899H67.847V11.7754Z" fill="#FAB40A"/>
<path d="M70.4319 5.51465H68.936V20.9963H70.4319V5.51465Z" fill="#FAB40A"/>
<path d="M73.0237 4.23145H71.5278V20.9969H73.0237V4.23145Z" fill="#FAB40A"/>
<path d="M75.616 7.0752H74.1201V20.997H75.616V7.0752Z" fill="#FAB40A"/>
<path d="M78.2078 9.37305H76.7119V20.9964H78.2078V9.37305Z" fill="#FAB40A"/>
<path d="M80.7928 11.0371H79.2969V20.997H80.7928V11.0371Z" fill="#FAB40A"/>
<path d="M83.3851 8.55859H81.8892V20.9964H83.3851V8.55859Z" fill="#FAB40A"/>
<path d="M85.9769 9.52539H84.481V20.9969H85.9769V9.52539Z" fill="#FAB40A"/>
</g>
<g opacity="0.5">
<path d="M21.2117 21.0029H19.7158V26.0623H21.2117V21.0029Z" fill="#FAB40A"/>
<path d="M23.8035 21.0029H22.3076V26.0623H23.8035V21.0029Z" fill="#FAB40A"/>
<path d="M26.3958 21.0029H24.8999V26.007H26.3958V21.0029Z" fill="#FAB40A"/>
<path d="M13.4427 21.0029H11.9468V24.5852H13.4427V21.0029Z" fill="#FAB40A"/>
<path d="M16.0345 21.0029H14.5386V24.5852H16.0345V21.0029Z" fill="#FAB40A"/>
<path d="M18.6268 21.0029H17.1309V24.5438H18.6268V21.0029Z" fill="#FAB40A"/>
<path d="M5.67364 17.4141H4.17773V20.9963H5.67364V17.4141Z" fill="#FAB40A"/>
<path d="M8.26544 17.4141H6.76953V20.9963H8.26544V17.4141Z" fill="#FAB40A"/>
<path d="M10.8504 17.4551H9.35449V20.9959H10.8504V17.4551Z" fill="#FAB40A"/>
<path d="M5.67364 21.0029H4.17773V24.5852H5.67364V21.0029Z" fill="#FAB40A"/>
<path d="M8.26544 21.0029H6.76953V24.5852H8.26544V21.0029Z" fill="#FAB40A"/>
<path d="M10.8504 21.0029H9.35449V24.5438H10.8504V21.0029Z" fill="#FAB40A"/>
<path d="M3.17803 17.4141H1.68213V20.9963H3.17803V17.4141Z" fill="#FAB40A"/>
<path d="M3.17803 21.0029H1.68213V24.5852H3.17803V21.0029Z" fill="#FAB40A"/>
<path d="M28.9876 21.0029H27.4917V27.5462H28.9876V21.0029Z" fill="#FAB40A"/>
<path d="M31.5794 21.0029H30.0835V29.6583H31.5794V21.0029Z" fill="#FAB40A"/>
<path d="M34.1649 21.0029H32.6689V30.7834H34.1649V21.0029Z" fill="#FAB40A"/>
<path d="M36.7566 21.0029H35.2607V34.2H36.7566V21.0029Z" fill="#FAB40A"/>
<path d="M39.3484 21.0029H37.8525V37.2231H39.3484V21.0029Z" fill="#FAB40A"/>
<path d="M41.9407 21.0029H40.4448V32.5434H41.9407V21.0029Z" fill="#FAB40A"/>
<path d="M44.5257 21.0029H43.0298V40.3844H44.5257V21.0029Z" fill="#FAB40A"/>
<path d="M47.1175 21.0029H45.6216V41.9995H47.1175V21.0029Z" fill="#FAB40A"/>
<path d="M49.7098 21.0029H48.2139V38.431H49.7098V21.0029Z" fill="#FAB40A"/>
<path d="M52.3016 21.0029H50.8057V35.5528H52.3016V21.0029Z" fill="#FAB40A"/>
<path d="M54.8934 21.0029H53.3975V33.4683H54.8934V21.0029Z" fill="#FAB40A"/>
<path d="M57.4788 21.0029H55.9829V36.5743H57.4788V21.0029Z" fill="#FAB40A"/>
<path d="M60.0706 21.0029H58.5747V35.3664H60.0706V21.0029Z" fill="#FAB40A"/>
<path d="M88.5687 21.0029H87.0728V36.4915H88.5687V21.0029Z" fill="#FAB40A"/>
<path d="M91.1605 21.0029H89.6646V39.5078H91.1605V21.0029Z" fill="#FAB40A"/>
<path d="M93.7459 21.0029H92.25V35.5321H93.7459V21.0029Z" fill="#FAB40A"/>
<path d="M62.6629 21.0029H61.167V31.5426H62.6629V21.0029Z" fill="#FAB40A"/>
<path d="M65.2547 21.0029H63.7588V33.9584H65.2547V21.0029Z" fill="#FAB40A"/>
<path d="M67.8465 21.0029H66.3506V30.2174H67.8465V21.0029Z" fill="#FAB40A"/>
<path d="M70.4319 21.0029H68.936V36.4846H70.4319V21.0029Z" fill="#FAB40A"/>
<path d="M73.0237 21.0029H71.5278V37.7684H73.0237V21.0029Z" fill="#FAB40A"/>
<path d="M75.6155 21.0029H74.1196V34.9247H75.6155V21.0029Z" fill="#FAB40A"/>
<path d="M78.2078 21.0029H76.7119V32.6263H78.2078V21.0029Z" fill="#FAB40A"/>
<path d="M80.7928 21.0029H79.2969V30.9628H80.7928V21.0029Z" fill="#FAB40A"/>
<path d="M83.3846 21.0029H81.8887V33.4407H83.3846V21.0029Z" fill="#FAB40A"/>
<path d="M85.9769 21.0029H84.481V32.4744H85.9769V21.0029Z" fill="#FAB40A"/>
</g>
<path d="M96.9928 20.9961C96.9928 21.639 96.8023 22.2676 96.4456 22.8022C96.0888 23.3368 95.5817 23.7535 94.9884 23.9995C94.3951 24.2456 93.7423 24.31 93.1125 24.1845C92.4826 24.0591 91.9041 23.7495 91.45 23.2948C90.9959 22.8402 90.6867 22.2609 90.5614 21.6303C90.4361 20.9997 90.5004 20.346 90.7462 19.752C90.9919 19.1579 91.4081 18.6502 91.942 18.293C92.476 17.9358 93.1037 17.7451 93.7459 17.7451C94.607 17.7451 95.4329 18.0876 96.0418 18.6973C96.6507 19.307 96.9928 20.1339 96.9928 20.9961Z" fill="#FAB40A"/>
</svg>
